<svg xmlns="http://www.w3.org/2000/svg" version="1.1" viewBox="0 0 2500 2500"><path fill="#14b3e9" fill-rule="evenodd" stroke="none" d="M 1196 135.613 C 1192.975 135.807, 1183.075 136.439, 1174 137.017 C 1050.334 144.894, 929.797 172.869, 813 220.801 C 759.442 242.781, 699.818 273.120, 650.500 303.488 C 534.095 375.165, 429.594 468.619, 347.302 574.633 C 280.794 660.313, 226.187 755.665, 186.498 855.418 C 140.012 972.256, 113.453 1095.392, 107.021 1223.897 C 105.719 1249.916, 105.706 1308.024, 106.998 1332 C 118.033 1536.818, 178.413 1725.263, 287.528 1895.427 C 352.347 1996.513, 433.952 2087.680, 528.048 2164.131 C 631.329 2248.045, 747.574 2312.868, 873 2356.490 C 894.022 2363.802, 903.209 2365.354, 921.500 2364.686 C 937.571 2364.099, 947.422 2361.877, 958.419 2356.358 C 967.315 2351.893, 970.059 2349.947, 977.898 2342.543 C 989.544 2331.542, 997.847 2316.094, 1001.412 2298.792 C 1002.804 2292.033, 1003 2277.989, 1003 2184.702 L 1003 2078.319 999.932 2072.179 C 996.591 2065.494, 990.777 2059.766, 984.500 2056.975 C 976.992 2053.638, 971.583 2053.618, 954.921 2056.865 C 915.419 2064.563, 895.487 2066.518, 857.500 2066.420 C 830.809 2066.351, 824.485 2066.033, 812 2064.127 C 779.953 2059.235, 756.374 2052.246, 732.500 2040.564 C 694.176 2021.812, 665.265 1995.610, 643.650 1960.043 C 635.164 1946.081, 632.184 1939.619, 626.935 1923.804 C 610.293 1873.663, 583.213 1830.049, 545.896 1793.288 C 528.028 1775.686, 518.720 1768.236, 489.414 1748.078 C 485.079 1745.096, 482.043 1742.486, 482.669 1742.277 C 484.604 1741.632, 506.746 1746.979, 517.187 1750.613 C 545.795 1760.571, 572.154 1777.167, 593.616 1798.733 C 606.498 1811.678, 615.782 1824.007, 628.015 1844.418 C 653.002 1886.109, 683.581 1917.102, 723 1940.692 C 797.953 1985.545, 891.083 1990.705, 971.363 1954.451 C 992.751 1944.792, 1000.230 1939.349, 1005.022 1929.956 C 1006.276 1927.498, 1007.805 1920.697, 1009.005 1912.234 C 1015.622 1865.563, 1033.211 1829.088, 1065.624 1794.819 C 1069.620 1790.595, 1073.849 1785.256, 1075.023 1782.956 C 1079.926 1773.345, 1079.325 1760.539, 1073.548 1751.508 C 1067.015 1741.294, 1060 1737.851, 1041 1735.530 C 1033.575 1734.623, 1017.271 1732.320, 1004.768 1730.412 C 842.494 1705.649, 733.422 1650.016, 664.200 1556.701 C 603.863 1475.363, 572.959 1361.862, 573.010 1221.789 C 573.021 1192.883, 573.853 1177.960, 576.541 1158.500 C 583.832 1105.703, 602.276 1053.672, 630.145 1007.280 C 642.531 986.662, 654.632 970.308, 674.379 947.500 C 688.702 930.957, 689.845 924.594, 682.559 901.968 C 657.747 824.912, 658.204 745.016, 683.890 669.575 C 686.123 663.016, 688.300 657.300, 688.727 656.873 C 689.155 656.445, 694.697 656.487, 701.042 656.965 C 763.976 661.712, 844.489 695.875, 939.728 758.245 C 957.984 770.200, 963.954 773, 971.192 773 C 973.323 773, 984.839 770.550, 996.783 767.556 C 1093.213 743.381, 1178.520 733.839, 1277.500 736.155 C 1353.695 737.938, 1428.411 748.486, 1506.251 768.448 C 1516.013 770.952, 1525.719 773, 1527.819 773 C 1535.333 773, 1541.646 770.051, 1560.605 757.682 C 1655.163 695.995, 1735.642 661.822, 1797.605 657.046 C 1807.936 656.250, 1809.658 656.335, 1810.705 657.694 C 1812.810 660.428, 1821.657 689.018, 1825.356 705.044 C 1840.290 769.733, 1837.718 835.007, 1817.742 898.286 C 1809.434 924.602, 1810.477 931.265, 1825.602 948.500 C 1842.746 968.036, 1852.490 980.826, 1863.695 998.500 C 1898.701 1053.716, 1919.170 1114.015, 1924.967 1179 C 1926.278 1193.690, 1926.293 1249.506, 1924.992 1271 C 1915.986 1419.834, 1873.890 1526.959, 1794.703 1602.562 C 1720.696 1673.219, 1614.913 1715.181, 1464.500 1733.548 C 1446.303 1735.770, 1442.671 1736.511, 1437.292 1739.098 C 1426.044 1744.508, 1419.689 1754.514, 1419.571 1767 C 1419.476 1777.195, 1422.329 1783.074, 1432.967 1794.599 C 1442.342 1804.756, 1455.727 1822.206, 1462.040 1832.500 C 1472.993 1850.362, 1484.051 1877.322, 1489.365 1899.122 C 1495.437 1924.032, 1495.195 1915.375, 1495.354 2113.426 L 1495.500 2294.500 1497.751 2302.818 C 1506.579 2335.436, 1528.589 2356.799, 1560.385 2363.608 C 1569.396 2365.538, 1590.573 2365.558, 1602 2363.647 C 1618.757 2360.846, 1677.960 2338.604, 1723.482 2318.008 C 1897.035 2239.485, 2051.393 2115.530, 2165.329 1963.189 C 2290.879 1795.318, 2367.483 1599.209, 2388.444 1392 C 2393.401 1343.004, 2395.355 1273.352, 2393.089 1226.500 C 2383.695 1032.349, 2328.964 851.800, 2229.244 686 C 2171.717 590.352, 2095.801 498.870, 2012.949 425.356 C 1934.189 355.473, 1855.142 301.749, 1764 256.158 C 1727.408 237.855, 1709.367 229.749, 1673.500 215.499 C 1582.070 179.173, 1491.480 155.775, 1395 143.569 C 1343.882 137.102, 1322.245 135.832, 1258 135.528 C 1226.925 135.380, 1199.025 135.419, 1196 135.613 M 1210 199.076 C 967.543 207.269, 730.585 299.755, 546.500 458.043 C 520.853 480.095, 493.924 505.698, 467.254 533.387 C 374.125 630.073, 296.617 751.158, 245.596 879.673 C 202.432 988.396, 177.604 1102.361, 171.019 1222 C 169.727 1245.475, 169.724 1311.090, 171.014 1334 C 183.202 1550.440, 257.408 1754.154, 386.842 1926.500 C 514.586 2096.596, 696.736 2229.140, 895.458 2296.601 C 906.586 2300.379, 909.567 2301, 916.559 2301 C 929.344 2301, 933.694 2298.912, 937.395 2291 C 939.472 2286.559, 939.504 2285.443, 939.789 2205.750 C 940.050 2132.776, 939.926 2125, 938.501 2125 C 937.634 2125, 929.629 2125.883, 920.713 2126.963 C 835.425 2137.290, 761.924 2127.094, 701 2096.486 C 673.669 2082.754, 651.135 2066.363, 628.977 2044.095 C 600.247 2015.223, 580.188 1983.775, 568.001 1948.500 C 557.863 1919.156, 549.058 1900.818, 534.997 1879.767 C 514.950 1849.754, 493.092 1828.105, 459.500 1804.992 C 428.521 1783.678, 410.309 1765.046, 403.937 1748.146 C 395.647 1726.162, 402.777 1704.939, 422.853 1691.833 C 440.100 1680.574, 471.741 1675.298, 496.500 1679.553 C 550.200 1688.781, 600.144 1714.837, 639.032 1753.912 C 656.201 1771.163, 667.045 1785.425, 682.063 1810.500 C 693.143 1829.002, 702.457 1841.200, 715.494 1854.284 C 741.365 1880.250, 772.642 1898.354, 807.517 1907.550 C 827.666 1912.864, 838.881 1914.293, 860.500 1914.301 C 889.362 1914.312, 908.654 1910.657, 936.505 1899.903 L 946.510 1896.040 949.273 1882.452 C 955.205 1853.274, 966.298 1825.541, 983.916 1795.847 L 986.083 1792.195 978.791 1791.011 C 933.536 1783.667, 881.907 1770.687, 841.622 1756.526 C 643.687 1686.945, 534.607 1538.017, 513.106 1308 C 508.548 1259.243, 507.796 1194.402, 511.428 1163.520 C 521.999 1073.661, 557.038 989.411, 611.459 923 C 614.839 918.875, 617.918 914.981, 618.302 914.347 C 618.685 913.713, 617.415 907.417, 615.480 900.357 C 593.593 820.496, 595.970 731.235, 622.067 653 C 627.346 637.175, 635.436 616.725, 638.519 611.416 C 641.548 606.198, 648.080 600.295, 653.454 597.917 C 666.713 592.052, 703.760 591.361, 732.488 596.443 C 801.052 608.572, 875.058 640.971, 963.446 697.557 L 977.191 706.356 981.845 705.285 C 1038.933 692.154, 1051.668 689.565, 1084 684.516 C 1166.242 671.674, 1254.418 668.585, 1339.500 675.565 C 1395.837 680.187, 1458.296 690.429, 1510.181 703.551 C 1515.506 704.898, 1520.564 706, 1521.422 706 C 1522.279 706, 1528.151 702.644, 1534.469 698.541 C 1613.791 647.041, 1692.077 611.663, 1755.500 598.657 C 1777.082 594.231, 1784.555 593.499, 1808 593.517 C 1833.372 593.537, 1840.664 594.705, 1849.500 600.164 C 1856.789 604.667, 1859.721 608.722, 1865.615 622.454 C 1896.876 695.276, 1906.468 783.103, 1892.007 864.110 C 1890.041 875.126, 1884.234 899.860, 1881.604 908.421 L 1880.093 913.343 1888.878 924.421 C 1939.740 988.560, 1972.809 1063.217, 1984.590 1140.500 C 1989.624 1173.521, 1991.362 1222.439, 1989.068 1266.500 C 1978.355 1472.257, 1908.018 1613.114, 1772 1701.199 C 1723.826 1732.397, 1664.742 1757.023, 1596.500 1774.348 C 1578.644 1778.881, 1535.866 1787.732, 1520.500 1790.073 C 1516.100 1790.743, 1512.378 1791.385, 1512.229 1791.500 C 1512.079 1791.615, 1514.480 1795.937, 1517.563 1801.105 C 1534.229 1829.037, 1547.256 1862.574, 1553.595 1893.867 C 1559.319 1922.126, 1559.123 1914.406, 1559.009 2106.892 C 1558.911 2271.096, 1559.029 2284.686, 1560.600 2289.678 C 1562.720 2296.417, 1566.239 2299.493, 1573.574 2301.015 C 1583.969 2303.173, 1591.634 2301.493, 1622.454 2290.302 C 1815.769 2220.105, 1988.934 2091.720, 2113.147 1926.500 C 2225.853 1776.586, 2297.230 1601.420, 2321.439 1415.326 C 2328.306 1362.543, 2330.419 1323.750, 2329.701 1263.646 C 2329.147 1217.211, 2328.656 1207.591, 2324.925 1170 C 2307.531 994.757, 2247.648 827.352, 2149.466 679.500 C 2105.605 613.451, 2062.971 562.234, 2002.907 503.440 C 1834.752 338.838, 1610.676 232.370, 1376 205.569 C 1319.978 199.172, 1267.698 197.127, 1210 199.076"/></svg>