<svg xmlns="http://www.w3.org/2000/svg" viewBox="0 0 2500 2500" version="1.1">
	<path d="M 748 105.654 C 713.106 107.570, 688.086 110.283, 660.500 115.142 C 474.512 147.904, 311.439 257.186, 209.313 417.500 C 150.533 509.771, 115.939 614.045, 106.800 726.500 C 104.886 750.054, 104.886 1749.946, 106.800 1773.500 C 120.062 1936.690, 187.619 2083.590, 302.014 2197.986 C 416.397 2312.368, 563.328 2379.939, 726.500 2393.200 C 750.054 2395.114, 1749.946 2395.114, 1773.500 2393.200 C 1936.731 2379.935, 2083.481 2312.432, 2197.957 2197.957 C 2312.416 2083.497, 2379.936 1936.708, 2393.200 1773.500 C 2395.114 1749.946, 2395.114 750.054, 2393.200 726.500 C 2381.178 578.569, 2324.788 444.420, 2228.343 334.314 C 2120.605 211.315, 1970.330 131.012, 1809.500 110.494 C 1769.246 105.359, 1803.824 105.672, 1259 105.506 C 980.975 105.421, 751.025 105.488, 748 105.654 M 757 189.671 C 652.323 193.198, 551.235 224.458, 462 280.896 C 426.633 303.264, 396.037 327.791, 364.150 359.336 C 303.871 418.970, 260.066 485.408, 229.539 563.500 C 208.043 618.490, 195.940 671.737, 190.784 734 C 188.899 756.758, 188.899 1743.242, 190.784 1766 C 195.940 1828.263, 208.043 1881.510, 229.539 1936.500 C 259.318 2012.679, 301.355 2077.241, 359.336 2135.850 C 418.923 2196.082, 485.470 2239.958, 563.500 2270.461 C 618.282 2291.876, 671.722 2304.045, 733.500 2309.172 C 757.156 2311.135, 1742.844 2311.135, 1766.500 2309.172 C 1847.312 2302.465, 1917.095 2283.004, 1988.464 2247.273 C 2042.290 2220.325, 2090.599 2185.373, 2135.841 2140.644 C 2196.056 2081.111, 2239.951 2014.546, 2270.461 1936.500 C 2291.876 1881.718, 2304.045 1828.278, 2309.172 1766.500 C 2311.135 1742.844, 2311.135 757.156, 2309.172 733.500 C 2302.465 652.688, 2283.004 582.905, 2247.273 511.536 C 2220.330 457.721, 2185.411 409.454, 2140.644 364.150 C 2081.225 304.019, 2014.752 260.182, 1936.500 229.526 C 1882.974 208.556, 1834.029 197.277, 1768.500 190.811 C 1759.455 189.918, 1634.497 189.597, 1261 189.506 C 988.475 189.439, 761.675 189.514, 757 189.671 M 1866.500 526.032 C 1829.969 531.663, 1800.432 557.558, 1789.312 593.703 C 1786.832 601.764, 1786.602 603.923, 1786.563 619.500 C 1786.527 634.260, 1786.821 637.554, 1788.797 644.500 C 1798.931 680.110, 1829.403 707.530, 1865.005 713.073 C 1876.739 714.900, 1895.655 713.767, 1906.297 710.600 C 1923.072 705.607, 1936.846 697.171, 1948.652 684.659 C 1971.151 660.816, 1979.615 629.024, 1971.992 597 C 1969.263 585.535, 1960.634 568.436, 1952.968 559.302 C 1940.593 544.556, 1921.250 532.434, 1903 527.988 C 1893.241 525.610, 1875.428 524.656, 1866.500 526.032 M 1877.624 610.125 C 1873.552 611.214, 1871.136 613.760, 1870.387 617.749 C 1869.013 625.075, 1874.972 630.978, 1882.346 629.595 C 1886.267 628.859, 1888.747 626.468, 1889.820 622.388 C 1890.910 618.244, 1890.230 615.503, 1887.416 612.689 C 1884.555 609.828, 1881.615 609.058, 1877.624 610.125 M 1204 684.533 C 1056.825 696.667, 921.437 764.695, 823.941 875.500 C 749.732 959.840, 702.097 1064.591, 687.518 1175.500 C 681.540 1220.982, 681.540 1279.018, 687.518 1324.500 C 716.777 1547.090, 876.161 1732.311, 1092.500 1795.131 C 1174.051 1818.812, 1266.107 1823.552, 1350.379 1808.411 C 1442.517 1791.856, 1529.980 1752.331, 1602.500 1694.477 C 1711.300 1607.681, 1784.012 1486.171, 1808.411 1350.379 C 1819.958 1286.112, 1819.958 1213.888, 1808.411 1149.621 C 1791.821 1057.290, 1752.655 970.656, 1694.362 897.347 C 1602.724 782.104, 1469.624 706.594, 1324.500 687.518 C 1290.461 683.044, 1237.864 681.741, 1204 684.533 M 1211.500 768.524 C 1149.131 773.853, 1093.969 788.957, 1038.500 815.894 C 984.767 841.988, 939.768 875.217, 897.600 919.940 C 827.671 994.107, 782.681 1090.296, 770.585 1191.500 C 759.374 1285.304, 774.710 1376.693, 815.894 1461.500 C 841.957 1515.170, 875.204 1560.202, 919.915 1602.392 C 993.937 1672.241, 1090.171 1717.253, 1191.500 1729.422 C 1305.738 1743.142, 1420.175 1716.314, 1515.500 1653.466 C 1578.143 1612.165, 1631.713 1555.303, 1669.031 1490.500 C 1677.912 1475.077, 1691.761 1446.236, 1698.802 1428.500 C 1757.021 1281.849, 1740.072 1115.859, 1653.466 984.500 C 1632.439 952.608, 1609.166 925.050, 1580.085 897.608 C 1506.065 827.762, 1409.672 782.677, 1308.500 770.585 C 1276.611 766.774, 1240.876 766.015, 1211.500 768.524" stroke="none" fill="#14b3e9" fill-rule="evenodd"></path>
</svg>