<svg xmlns="http://www.w3.org/2000/svg" version="1.1" viewBox="0 0 2500 2500"><path fill="#14b3e9" fill-rule="evenodd" stroke="none" d="M 336 106.018 C 230.467 113.348, 140.227 187.999, 113.598 290 C 107.907 311.799, 105.788 329.027, 105.788 353.500 C 105.788 394.091, 113.184 426.150, 130.944 462.534 C 155.216 512.258, 194.664 551.674, 244.500 576 C 267.836 587.391, 290.564 594.645, 315 598.502 C 329.038 600.718, 363.601 601.590, 378.142 600.095 C 425.641 595.211, 468.506 577.942, 506.885 548.228 C 517.955 539.658, 539.658 517.955, 548.228 506.885 C 577.942 468.506, 595.211 425.641, 600.095 378.142 C 601.590 363.601, 600.718 329.038, 598.502 315 C 587.728 246.745, 548.280 185.305, 490.500 146.789 C 476.474 137.440, 450.950 124.655, 436 119.491 C 404.130 108.482, 368.883 103.734, 336 106.018 M 342.500 180.123 C 300.619 182.494, 260.773 200.483, 230.628 230.628 C 197.600 263.656, 179.941 306.463, 179.941 353.500 C 179.941 385.975, 188.068 415.408, 204.793 443.500 C 214.182 459.272, 232.435 479.605, 247.688 491.283 C 294.343 527.005, 357.213 536.770, 411.964 516.799 C 437.562 507.462, 457 495.103, 476.051 476.051 C 509.158 442.945, 526.917 400.122, 526.982 353.243 C 527.056 299.534, 501.665 248.085, 459.082 215.661 C 425.135 189.812, 385.384 177.695, 342.500 180.123 M 128.843 846.370 C 119.435 850.247, 112.919 856.664, 108.235 866.662 L 105.500 872.500 105.500 1618.500 C 105.500 2330.407, 105.581 2364.729, 107.275 2369.500 C 110.930 2379.797, 120.203 2389.070, 130.500 2392.725 C 135.230 2394.404, 147.285 2394.500, 354 2394.500 L 572.500 2394.500 579.201 2391.326 C 587.425 2387.430, 594.290 2380.749, 597.830 2373.196 L 600.500 2367.500 600.752 1620.293 L 601.004 873.086 598.917 867.508 C 596.172 860.170, 587.978 851.329, 580.332 847.455 L 574.500 844.500 354.500 844.269 L 134.500 844.038 128.843 846.370 M 814.822 846.379 C 805.046 850.406, 798.188 857.022, 793.686 866.767 L 791.500 871.500 791.500 1619 L 791.500 2366.500 794.300 2372.500 C 799.708 2384.091, 809.936 2391.973, 822.138 2393.953 C 830.952 2395.383, 1247.048 2395.383, 1255.862 2393.953 C 1264.124 2392.612, 1270.393 2389.325, 1276.114 2383.332 C 1281.208 2377.997, 1284.370 2372.586, 1285.950 2366.500 C 1286.659 2363.769, 1286.991 2244.843, 1286.994 1991.711 C 1286.998 1742.881, 1287.341 1617.727, 1288.036 1611.211 C 1293.157 1563.212, 1315.847 1511.009, 1350.015 1468.616 C 1361.604 1454.237, 1384.407 1431.599, 1398.838 1420.146 C 1453.456 1376.800, 1521.624 1351.258, 1606.500 1342.338 C 1630.265 1339.840, 1688.504 1339.825, 1708 1342.311 C 1768.450 1350.021, 1812.516 1369.560, 1844.009 1402.618 C 1874.400 1434.518, 1889.393 1470.852, 1897.191 1531.500 C 1898.043 1538.123, 1898.501 1649.721, 1898.924 1954 L 1899.500 2367.500 1902.170 2373.196 C 1905.710 2380.749, 1912.575 2387.430, 1920.799 2391.326 L 1927.500 2394.500 2146 2394.500 C 2352.715 2394.500, 2364.770 2394.404, 2369.500 2392.725 C 2379.479 2389.183, 2388.695 2380.163, 2392.718 2370 C 2394.415 2365.715, 2394.514 2346.663, 2394.802 1972 C 2395.107 1573.607, 2394.803 1529.935, 2391.459 1491.291 C 2380.673 1366.667, 2345.597 1255.276, 2287.172 1160.108 C 2196.571 1012.532, 2058.209 913.530, 1880.500 869.126 C 1836.011 858.010, 1788.520 850.577, 1735 846.354 C 1706.700 844.121, 1629.971 843.782, 1609 845.797 C 1537.391 852.677, 1476.324 867.428, 1411.500 893.502 C 1374.459 908.402, 1328.986 930.987, 1296 950.870 L 1287.500 955.993 1287 913.747 L 1286.500 871.500 1283.890 866 C 1280.019 857.842, 1273.960 851.598, 1266.218 847.787 L 1259.542 844.500 1040.021 844.270 L 820.500 844.040 814.822 846.379 M 179.249 1619.250 L 179.500 2320.500 353.250 2320.753 L 527 2321.006 527 1619.503 L 527 918 352.999 918 L 178.999 918 179.249 1619.250 M 865 1619.500 L 865 2321 1039 2321 L 1213 2321 1213.001 1969.250 C 1213.001 1738.142, 1213.351 1613.727, 1214.021 1606.500 C 1218.957 1553.246, 1239.586 1497.876, 1273.162 1447.758 C 1297.314 1411.709, 1334.713 1373.881, 1372.500 1347.284 C 1394.250 1331.975, 1432.792 1311.323, 1457.793 1301.581 C 1523.022 1276.166, 1591.517 1264.805, 1670.483 1266.303 C 1702.581 1266.912, 1711.680 1267.641, 1736 1271.556 C 1863.594 1292.097, 1945.837 1371.839, 1966.967 1495.500 C 1972.764 1529.421, 1972.381 1500.703, 1972.731 1928.753 L 1973.051 2321.006 2146.775 2320.753 L 2320.500 2320.500 2320.792 1952.500 C 2321.087 1580.764, 2320.741 1533.162, 2317.477 1496.519 C 2313.551 1452.439, 2307.258 1414.954, 2297.049 1374.833 C 2272.403 1277.969, 2230.383 1195.386, 2169.419 1124 C 2156.271 1108.604, 2126.506 1078.950, 2110.645 1065.445 C 2018.030 986.588, 1897.916 937.875, 1759.500 923.035 C 1719.322 918.728, 1658.509 916.810, 1628.500 918.904 C 1550.038 924.380, 1481.921 942.058, 1406.331 976.562 C 1391.626 983.275, 1363.798 997.467, 1351 1004.782 C 1326.491 1018.790, 1305.040 1032.193, 1282.232 1047.750 C 1273.834 1053.478, 1264.508 1059.027, 1261.507 1060.082 C 1252.650 1063.195, 1241.071 1062.194, 1232.069 1057.536 C 1226.910 1054.867, 1219.513 1046.751, 1216.330 1040.265 L 1213.500 1034.500 1213.212 976.250 L 1212.924 918 1038.962 918 L 865 918 865 1619.500"/></svg>